<?xml version="1.0" encoding="UTF-8"?>
<svg version="1.1" xmlns="http://www.w3.org/2000/svg" width="563" height="125">
<path d="M0 0 C1.65 0 3.3 0 5 0 C8.68074171 6.9897829 11.67442287 14.24022503 14.68460083 21.53497314 C15.64563136 23.86246652 16.61115835 26.18804903 17.57788086 28.51318359 C20.51553392 35.5812689 23.44540255 42.65252939 26.36279297 49.72900391 C28.36400962 54.58310564 30.37276155 59.43403511 32.38568115 64.28329468 C33.16341881 66.1613248 33.93825328 68.04056011 34.71002197 69.92105103 C40.04187067 86.13835188 40.04187067 86.13835188 50.46313477 98.27001953 C52.64337418 99.04289112 54.72345009 99.60539802 57 100 C57 101.32 57 102.64 57 104 C43.47 104 29.94 104 16 104 C16 102.68 16 101.36 16 100 C18.01822917 99.609375 20.03645833 99.21875 22.0546875 98.828125 C24.11201897 98.13300379 24.11201897 98.13300379 25.359375 96.30859375 C26.27056774 93.02496626 25.44199222 91.02499098 24.375 87.8125 C23.99601562 86.6678125 23.61703125 85.523125 23.2265625 84.34375 C21.89295253 80.70817631 20.41635868 77.19391279 18.734375 73.70703125 C18 72 18 72 18 70 C5.13 70.33 -7.74 70.66 -21 71 C-22.32 74.155625 -23.64 77.31125 -25 80.5625 C-25.41765625 81.5429126 -25.8353125 82.5233252 -26.265625 83.53344727 C-28.34160712 88.61167435 -29.48189891 92.51087022 -29 98 C-25.37 98.66 -21.74 99.32 -18 100 C-18 101.32 -18 102.64 -18 104 C-28.89 104 -39.78 104 -51 104 C-51 102.68 -51 101.36 -51 100 C-49.80375 99.71125 -48.6075 99.4225 -47.375 99.125 C-40.30938464 96.36487387 -37.94621794 89.21061737 -35.03076172 82.64111328 C-32.70988986 77.28597261 -30.48161191 71.89277429 -28.25 66.5 C-27.00153832 63.50763861 -25.75018504 60.51649738 -24.49861145 57.5254364 C-23.63887798 55.47053922 -22.77998848 53.41528875 -21.92192078 51.35969543 C-17.28994931 40.27176064 -12.55639396 29.22790495 -7.8125 18.1875 C-7.02045423 16.34247092 -6.22846056 14.49741947 -5.43652344 12.65234375 C-3.62568314 8.43432147 -1.81334844 4.21694459 0 0 Z M-2 25 C-3.80149908 29.10548321 -5.59774035 33.21321646 -7.3894043 37.32299805 C-7.99803365 38.7171633 -8.60802891 40.11073316 -9.21948242 41.50366211 C-10.10446158 43.52037258 -10.9843007 45.53926277 -11.86328125 47.55859375 C-12.13215652 48.16835556 -12.4010318 48.77811737 -12.67805481 49.40635681 C-14.76852504 54.2292578 -16.3191862 58.9575586 -18 64 C-7.11 64 3.78 64 15 64 C12.54348483 56.63045449 9.81892359 49.58091635 6.7565918 42.46801758 C5.9297428 40.54445382 5.11208849 38.61714697 4.29492188 36.68945312 C3.76877484 35.4607037 3.24210153 34.23217946 2.71484375 33.00390625 C2.24167725 31.89861572 1.76851074 30.7933252 1.28100586 29.65454102 C0.14248412 26.92280715 0.14248412 26.92280715 -2 25 Z " fill="#FFFFFF" transform="translate(60,9)"/>
<path d="M0 0 C3.3265563 2.67747214 3.89853117 4.28971818 4.5 8.5 C3.89853117 12.71028182 3.3265563 14.32252786 0 17 C-4.29879217 17.89919689 -7.74844267 17.78222333 -11.5 15.4375 C-13.50133412 12.18533206 -13.93311096 9.81267501 -14 6 C-11.02199283 -0.5232538 -6.71554215 -1.03774808 0 0 Z " fill="#FFFFFF" transform="translate(142,97)"/>
</svg>
